Coordinates
version=1
nRows=7
nColumns=42
inDegrees=yes

Units are S.I. units (second, meters, Newtons, ...)
If the header above contains a line with 'inDegrees', this indicates whether rotational values are in degrees (yes) or radians (no).

endheader
time	pelvis_tilt	pelvis_list	pelvis_rotation	pelvis_tx	pelvis_ty	pelvis_tz	hip_flexion_r	hip_adduction_r	hip_rotation_r	knee_angle_r	knee_adduction_r	knee_angle_r_beta	ankle_angle_r	subtalar_angle_r	mtp_angle_r	hip_flexion_l	hip_adduction_l	hip_rotation_l	knee_angle_l	knee_adduction_l	knee_angle_l_beta	ankle_angle_l	subtalar_angle_l	mtp_angle_l	lumbar_extension	lumbar_bending	lumbar_rotation	arm_flex_r	arm_add_r	arm_rot_r	elbow_flex_r	pro_sup_r	wrist_flex_r	wrist_dev_r	arm_flex_l	arm_add_l	arm_rot_l	elbow_flex_l	pro_sup_l	wrist_flex_l	wrist_dev_l
      0.81000000	     12.95885140	     -1.66510725	     -8.20939404	     -0.26714395	      0.85400830	     -0.18267178	    -13.92338375	     -0.49237446	      1.56021631	     57.69526091	      1.91732356	      1.00697227	      2.11110855	    -18.57492149	     -7.56970733	      3.52486615	      2.48292567	    -11.91613615	     20.41079200	      1.18222174	      0.35623552	     10.87654348	    -14.38900326	     -7.56970733	    -27.56931360	     -3.12953304	     10.98173651	     11.57592652	     -9.03061838	      6.62620622	     36.47036850	     90.00000001	      0.00000000	      0.00000000	     -0.39139671	     -2.82069973	    -20.03276833	     22.61459316	     90.00000001	      0.00000000	      0.00000000
      0.82000000	     12.87214482	     -1.68968162	     -7.95352702	     -0.25719967	      0.85508890	     -0.18327290	    -12.13765630	     -0.65431053	      1.97266603	     60.25360870	      2.33415305	      1.05162386	      2.70736516	    -18.81269193	     -7.56847160	      2.62356655	      2.58190170	    -12.16553821	     19.87932356	      1.16819976	      0.34695965	     11.44742097	    -13.68371709	     -7.56847160	    -27.65562791	     -2.96836488	     10.68059591	     10.73591355	     -9.05678339	      6.50998439	     35.57755776	     90.00000001	      0.00000000	      0.00000000	      0.74908892	     -3.04799565	    -19.61397922	     23.15231475	     90.00000001	      0.00000000	      0.00000000
      0.83000000	     12.77796815	     -1.76439861	     -7.63039427	     -0.24732303	      0.85613228	     -0.18384100	    -10.33906537	     -0.68386764	      1.99083778	     62.51189774	      2.40988047	      1.09103844	      3.61456900	    -18.89042888	     -7.56719718	      1.72146742	      2.60482980	    -12.50500541	     19.34095451	      1.14139548	      0.33756334	     12.00390548	    -12.84738562	     -7.56719718	    -27.73567212	     -2.72980718	     10.38694904	      9.92093485	     -9.06630781	      6.36739506	     34.65070643	     90.00000001	      0.00000000	      0.00000000	      1.90847723	     -3.28865451	    -19.12347308	     23.70757384	     90.00000001	      0.00000000	      0.00000000
      0.84000000	     12.65938932	     -1.91023275	     -7.27066173	     -0.23752623	      0.85705466	     -0.18433702	     -8.50502571	     -0.59100731	      1.40005430	     64.42791528	      1.93937427	      1.12447925	      4.91025323	    -18.93708309	     -7.55996585	      1.04892788	      2.42339387	    -13.86907033	     19.19590575	      0.93824359	      0.33503176	     13.22290700	    -10.10526140	     -7.55996585	    -27.76917419	     -2.40656359	      9.95348571	      9.84767772	     -8.51744111	      4.91290736	     31.84686940	     90.00000001	      0.00000000	      0.00000000	      2.68030909	     -3.99490433	    -15.47613655	     24.49659442	     90.00000001	      0.00000000	      0.00000000
      0.85000000	     12.60204243	     -2.11435065	     -7.00878636	     -0.22788057	      0.85811470	     -0.18478275	     -6.72654979	     -0.40354960	      0.92799156	     65.99055160	      1.41004368	      1.15175240	      5.83214472	    -19.00157699	     -7.55892849	      0.05645648	      2.26949334	    -14.18841224	     18.57423153	      1.01884383	      0.32418150	     13.55551684	     -9.49263188	     -7.55892849	    -27.91055542	     -2.06543305	      9.78272755	      8.84291746	     -8.69848385	      4.79182654	     31.57190486	     90.00000001	      0.00000000	      0.00000000	      3.88107963	     -4.16706687	    -15.13101875	     25.29167188	     90.00000001	      0.00000000	      0.00000000
      0.86000000	     12.52890038	     -2.32159500	     -6.70775837	     -0.21827613	      0.85912169	     -0.18516924	     -4.91946108	     -0.17997391	      0.13328245	     67.20317669	      0.65126477	      1.17291670	      6.89994939	    -19.03955503	     -7.55796191	     -0.90360881	      2.10987496	    -14.48512639	     17.97419794	      1.05351844	      0.31370893	     13.93903554	     -8.72787064	     -7.55796191	    -28.02417643	     -1.73717180	      9.56659507	      7.93414723	     -8.80971637	      4.68369638	     31.20190875	     90.00000001	      0.00000000	      0.00000000	      5.10432976	     -4.39687501	    -14.75919403	     26.04688565	     90.00000001	      0.00000000	      0.00000000
      0.87000000	     12.50760720	     -2.45242636	     -6.18500657	     -0.20843496	      0.86004786	     -0.18572233	     -3.21612414	     -0.03286998	     -1.96564464	     67.94713898	     -1.06278048	      1.18590129	      8.60857459	    -18.93580763	     -7.55607158	     -1.85052813	      2.05695574	    -14.74363223	     17.44213728	      0.94627272	      0.30442272	     14.76125934	     -7.03113880	     -7.55607158	    -28.11712449	     -1.41975507	      9.08600042	      7.02818665	     -8.77158487	      4.39443802	     30.53617250	     90.00000001	      0.00000000	      0.00000000	      6.19423963	     -4.77736812	    -13.72941028	     26.87796461	     90.00000001	      0.00000000	      0.00000000
